<svg xmlns="http://www.w3.org/2000/svg" xmlns:xlink="http://www.w3.org/1999/xlink" viewBox="0 0 24 24" fill="#5B5B5B">
  <path d="M10.199219 24L24 10.199219L24 0L13.800781 0L0 13.800781 Z M 20.5 2C21.300781 2 22 2.699219 22 3.5C22 4.300781 21.300781 5 20.5 5C19.699219 5 19 4.300781 19 3.5C19 2.699219 19.699219 2 20.5 2 Z M 10.300781 16.898438C9.601563 16.898438 8.898438 16.699219 8.300781 16.199219L7.199219 17.199219L6.5 16.5L7.5 15.398438C7 14.800781 6.699219 14.101563 6.800781 13.300781C6.800781 12.5 7.199219 11.800781 8 11L9.101563 12.101563C8.5 12.699219 8.199219 13.199219 8.199219 13.699219C8.199219 14.199219 8.300781 14.601563 8.699219 14.898438C9.101563 15.300781 9.5 15.398438 9.898438 15.398438C10.300781 15.398438 10.699219 15.101563 11.101563 14.800781C11.5 14.398438 11.699219 14.101563 11.699219 13.699219C11.800781 13.300781 11.699219 12.800781 11.398438 12.101563C11 11.199219 10.800781 10.300781 10.800781 9.699219C10.800781 9 11.199219 8.300781 11.800781 7.699219C12.398438 7.101563 13.101563 6.800781 13.800781 6.699219C14.5 6.601563 15.199219 6.898438 15.800781 7.398438L17 6.199219L17.699219 6.898438L16.5 8.101563C17 8.699219 17.101563 9.398438 17 10.199219C16.898438 10.898438 16.5 11.699219 15.800781 12.398438L14.699219 11.300781C15.199219 10.800781 15.5 10.300781 15.601563 9.898438C15.699219 9.5 15.601563 9 15.300781 8.699219C15 8.398438 14.601563 8.199219 14.199219 8.300781C13.800781 8.398438 13.398438 8.601563 13 9C12.601563 9.398438 12.398438 9.699219 12.398438 10.101563C12.300781 10.5 12.398438 11 12.699219 11.699219C13.101563 12.601563 13.300781 13.398438 13.300781 14.101563C13.300781 14.800781 12.898438 15.5 12.300781 16.101563C11.699219 16.5 11 16.800781 10.300781 16.898438Z" fill="#5B5B5B" />
</svg>